<svg xmlns="http://www.w3.org/2000/svg" viewBox="0 0 512 512">
  <path fill="#000000" d="M256 80c-13 0-24 5-33 14L128 189c-9 9-14 20-14 33v128c0 13 5 24 14 33l95 95c9 9 20 14 33 14s24-5 33-14l95-95c9-9 14-20 14-33V222c0-13-5-24-14-33L289 94c-9-9-20-14-33-14zm0 40c4 0 8 2 11 5l95 95c3 3 5 7 5 11v128c0 4-2 8-5 11l-95 95c-3 3-7 5-11 5s-8-2-11-5l-95-95c-3-3-5-7-5-11V222c0-4 2-8 5-11l95-95c3-3 7-5 11-5z"/>
  <path fill="#000000" d="M256 140c-8 0-15 3-20 8L168 216c-5 5-8 12-8 20v40c0 8 3 15 8 20l68 68c5 5 12 8 20 8s15-3 20-8l68-68c5-5 8-12 8-20v-40c0-8-3-15-8-20l-68-68c-5-5-12-8-20-8zm0 30c2 0 4 1 6 3l62 62c2 2 3 4 3 6v40c0 2-1 4-3 6l-62 62c-2 2-4 3-6 3s-4-1-6-3l-62-62c-2-2-3-4-3-6v-40c0-2 1-4 3-6l62-62c2-2 4-3 6-3z"/>
  <path fill="#000000" d="M196 256h120v20H196zM196 296h120v20H196z"/>
</svg>